<svg width="100" height="100" viewBox="0 0 100 100" fill="none" xmlns="http://www.w3.org/2000/svg">
  <!-- Versión simplificada del logo E para el ícono -->
  <path d="M50 10 C50 10, 25 17, 15 40 C5 63, 15 80, 35 90 L50 90 L50 75 L37 75 C32 70, 30 60, 32 50 C34 40, 40 35, 47 33 L47 20 L35 20 C30 22, 27 25, 25 30 L50 30 L50 10 Z" fill="#14b8a6"/>
  <path d="M60 10 L60 90 L75 90 C87 85, 95 75, 95 63 C95 50, 87 40, 75 35 L75 20 C83 22, 90 30, 93 40 L93 10 L60 10 Z" fill="#2dd4bf" opacity="0.8"/>
</svg>
